<svg width="544" height="99" viewBox="0 0 544 99" fill="none" xmlns="http://www.w3.org/2000/svg">
<path d="M124.491 65.7703C121.857 60.8886 120.539 55.3475 120.539 49.1469C120.539 43.0508 121.857 37.6111 124.491 32.8339C127.124 28.0537 130.778 24.3208 135.452 21.6353C140.125 18.9497 145.458 17.604 151.447 17.604C156.147 17.604 160.433 18.5201 164.307 20.3552C168.181 22.1903 171.382 24.7982 173.914 28.182C176.443 31.5657 178.045 35.5075 178.716 40.0013H168.954C168.179 36.0237 166.138 32.7951 162.834 30.3125C159.529 27.8329 155.631 26.5915 151.137 26.5915C147.006 26.5915 143.376 27.5225 140.253 29.3815C137.128 31.2405 134.703 33.8395 132.97 37.1695C131.24 40.5026 130.375 44.3637 130.375 48.7561C130.375 53.405 131.24 57.5138 132.97 61.0796C134.7 64.6454 137.116 67.4085 140.215 69.3719C143.313 71.3353 146.901 72.317 150.981 72.317C155.783 72.317 159.89 70.9862 163.299 68.3246C166.708 65.6629 168.826 62.1628 169.652 57.8212H179.414C178.638 62.5238 176.92 66.6446 174.263 70.1835C171.602 73.7225 168.298 76.4617 164.346 78.3982C160.394 80.3348 156.147 81.3046 151.602 81.3046C145.61 81.3046 140.253 79.935 135.526 77.1957C130.805 74.4625 127.124 70.652 124.491 65.7703Z" fill="black"/>
<path d="M187.384 70.9222C185.627 67.6668 184.75 63.9727 184.75 59.84C184.75 55.7073 185.627 52.0251 187.384 48.7965C189.14 45.5679 191.592 43.0495 194.744 41.2383C197.894 39.43 201.458 38.5259 205.434 38.5259C208.843 38.5259 211.941 39.3524 214.73 41.0055C217.519 42.6586 219.726 45.0636 221.354 48.2146C222.98 51.3657 223.794 55.0866 223.794 59.3745V62.7075H194.124C194.383 66.1181 195.493 68.8305 197.455 70.8447C199.418 72.8588 202.078 73.8674 205.434 73.8674C207.808 73.8674 209.809 73.2855 211.437 72.1247C213.063 70.961 214.059 69.5556 214.42 67.8995H223.484C223.069 70.4299 222.037 72.7185 220.385 74.7595C218.733 76.8005 216.615 78.4029 214.032 79.5666C211.449 80.7274 208.583 81.3092 205.434 81.3092C201.455 81.3092 197.894 80.3902 194.744 78.5581C191.592 76.723 189.14 74.1777 187.384 70.9222ZM211.864 49.1456C210.107 47.2867 207.861 46.3557 205.123 46.3557C202.025 46.3557 199.534 47.2598 197.649 49.068C195.764 50.8763 194.589 53.3321 194.124 56.4323H214.73C214.575 53.4335 213.618 51.0046 211.864 49.1456Z" fill="black"/>
<path d="M240.216 39.7701V46.281C241.662 43.8521 243.559 41.9543 245.909 40.5847C248.259 39.2151 251.009 38.5317 254.159 38.5317C259.116 38.5317 262.835 40.0416 265.313 43.0643C267.792 46.087 269.032 50.545 269.032 56.4352V80.0738H259.814V56.8231C259.814 53.5677 259.05 51.0105 257.529 49.1515C256.008 47.2925 253.875 46.3615 251.137 46.3615C247.833 46.3615 245.184 47.6148 243.198 50.1213C241.209 52.6277 240.216 55.8951 240.216 59.9264V80.0768H231.074V39.7701H240.216Z" fill="black"/>
<path d="M287.042 79.4519C285.417 78.8313 284.203 77.7063 283.401 76.0801C282.598 74.4539 282.225 72.1652 282.276 69.2201V47.906H273.678V39.7689H282.276V28.9194H291.417V39.7689H302.572V47.906H291.417V65.2664C291.417 67.3343 291.507 68.8053 291.689 69.6826C291.871 70.5629 292.321 71.2074 293.043 71.6222C293.768 72.0339 294.928 72.2428 296.529 72.2428C297.716 72.2428 299.112 72.1652 300.711 72.0101V79.992C297.767 80.2516 295.393 80.3799 293.586 80.3799C290.851 80.3799 288.671 80.0696 287.042 79.4519Z" fill="black"/>
<path d="M308.539 75.2638C307.504 73.4556 306.988 71.4922 306.988 69.3736C306.988 65.7571 308.497 62.8627 311.522 60.6934C314.543 58.5241 318.996 57.1007 324.883 56.4294L334.412 55.3432V53.3291C334.463 51.0553 333.78 49.3247 332.357 48.1371C330.938 46.9495 328.781 46.3557 325.888 46.3557C323.1 46.3557 320.943 46.9883 319.419 48.2534C317.895 49.5186 317.135 51.2881 317.135 53.5618H308.459C308.459 48.8084 309.995 45.1144 313.067 42.4796C316.139 39.8448 320.466 38.5259 326.043 38.5259C331.671 38.5259 335.984 39.8179 338.982 42.402C341.976 44.9861 343.473 48.6294 343.473 53.3291V69.1408C343.473 70.7432 343.667 71.8532 344.055 72.4739C344.443 73.0945 345.203 73.4048 346.339 73.4048L347.267 73.3273L347.189 79.7606C345.692 80.1753 344.219 80.3812 342.775 80.3812C338.129 80.3812 335.546 77.824 335.03 72.7066C333.944 75.4458 332.214 77.5644 329.84 79.0623C327.466 80.5603 324.496 81.3092 320.931 81.3092C317.883 81.3092 315.315 80.7542 313.225 79.6412C311.134 78.5312 309.571 77.0721 308.539 75.2638ZM334.18 62.242L327.982 62.8627C323.902 63.3282 320.893 64.0383 318.957 64.9932C317.021 65.951 316.052 67.3057 316.052 69.0633C316.052 70.5105 316.622 71.7488 317.755 72.7842C318.891 73.8196 320.594 74.3358 322.867 74.3358C326.017 74.3358 328.638 73.187 330.729 70.8864C332.826 68.5858 333.974 65.7034 334.18 62.242Z" fill="black"/>
<path d="M380.469 80.0679V73.557C379.023 75.9859 377.126 77.8837 374.776 79.2533C372.425 80.6229 369.649 81.3062 366.449 81.3062C361.542 81.3062 357.85 79.7934 355.372 76.7707C352.893 73.748 351.652 69.293 351.652 63.4028V39.7642H360.794V63.0149C360.794 66.2703 361.554 68.8275 363.078 70.6865C364.599 72.5485 366.759 73.4765 369.547 73.4765C372.801 73.4765 375.435 72.2232 377.448 69.7167C379.461 67.2102 380.469 63.9429 380.469 59.9116V39.7612H389.533V80.0619H380.469V80.0679Z" fill="black"/>
<path d="M407.036 39.7682V47.4399C409.67 42.0151 414.991 39.3027 422.996 39.3027V47.9054C418.09 47.9054 414.204 48.6692 411.337 50.191C408.471 51.7128 407.036 54.2074 407.036 57.6717V80.069H398.205V39.7682H407.036Z" fill="black"/>
<path d="M426.086 27.9116C426.086 26.154 426.679 24.6949 427.866 23.5312C429.056 22.3675 430.527 21.7886 432.284 21.7886C434.04 21.7886 435.511 22.3704 436.701 23.5312C437.888 24.6949 438.481 26.154 438.481 27.9116C438.481 29.6154 437.873 31.0626 436.662 32.2502C435.448 33.4378 433.99 34.0316 432.284 34.0316C430.527 34.0316 429.056 33.4497 427.866 32.289C426.682 31.1282 426.086 29.6661 426.086 27.9116ZM436.856 39.7696V80.0704H427.792V39.7696H436.856Z" fill="black"/>
<path d="M442.361 47.9043V39.7671H451.89V35.3479C451.786 29.768 453.065 25.5816 455.723 22.7916C458.383 20.0017 462.398 18.6828 467.769 18.8379L471.951 18.9155V26.8199H468.929C466.036 26.8199 463.984 27.4406 462.77 28.6789C461.557 29.9202 460.948 32.1164 460.948 35.2674V39.7641H472.335V47.9013H460.948V80.0649H451.884V47.9043H442.361Z" fill="black"/>
<path d="M482.257 87.6663C484.942 87.6663 487.074 87.1889 488.649 86.234C490.224 85.2762 491.736 83.5604 493.179 81.0808L474.279 39.7715H483.886L497.907 69.9209L508.984 39.7715H518.59L502.088 83.0949C500.23 87.6931 497.698 90.9217 494.498 92.7837C491.294 94.6427 487.086 95.5736 481.87 95.5736H477.685V87.6693H482.257V87.6663Z" fill="black"/>
<path d="M81.2516 72.2986C92.597 60.0944 99.5343 49.23 97.1751 46.8697C95.0426 44.7362 85.949 50.2117 75.2031 59.6796C88.5796 45.0615 96.7367 32.526 94.133 29.9241C91.5561 27.346 79.2533 35.319 64.8329 48.4601C79.2801 32.3291 87.5655 17.9467 83.9358 14.3182C80.3061 10.6868 65.9334 18.9761 49.8101 33.4332C62.945 19.003 70.9142 6.69432 68.3373 4.11622C65.7366 1.51127 53.2071 9.67525 38.5929 23.0551C48.0564 12.3041 53.5322 3.20613 51.3997 1.07263C49.0436 -1.28466 38.1813 5.65294 25.9829 17.0037C29.037 12.877 30.394 9.29033 29.1026 8.00128C27.2922 6.19004 20.9633 9.58872 14.9655 15.5894C8.96771 21.59 5.57065 27.9219 7.38103 29.7331C8.67245 31.0222 12.2574 29.6675 16.3822 26.6119C5.03678 38.8161 -1.89753 49.6805 0.458647 52.0408C2.59113 54.1743 11.6848 48.6988 22.4307 39.2309C9.05421 53.8491 0.897074 66.3845 3.5008 68.9865C6.07767 71.5646 18.3805 63.5915 32.8009 50.4474C18.3536 66.5784 10.0683 80.9609 13.698 84.5923C17.3277 88.2237 31.7003 79.9344 47.8237 65.4774C34.6888 79.9076 26.7195 92.2162 29.2964 94.7943C31.8972 97.3963 44.4266 89.2353 59.0379 75.8554C49.5744 86.6065 44.1016 95.7044 46.234 97.8379C48.5902 100.195 59.4525 93.2576 71.6509 81.9068C68.5938 86.0335 67.2398 89.6202 68.5282 90.9093C70.3386 92.7205 76.6675 89.3218 82.6653 83.3212C88.6631 77.3205 92.0601 70.9887 90.2498 69.1774C88.9613 67.8854 85.3764 69.2431 81.2516 72.2986Z" fill="black"/>
<path d="M520.482 17.6794V16.1099H530.274V17.6794H526.176V26.5267H524.581V17.6794H520.482Z" fill="black"/>
<path d="M533.735 16.1099L537.108 24.429L540.496 16.1099H543.001V26.5267H541.394V18.3001L537.901 26.5267H536.321L532.84 18.3001V26.5267H531.232V16.1099H533.735Z" fill="black"/>
</svg>
